<svg width="20" height="27" viewBox="0 0 20 27" fill="none" xmlns="http://www.w3.org/2000/svg">
<mask id="path-1-outside-1_2044_221" maskUnits="userSpaceOnUse" x="0" y="0" width="20" height="27" fill="black">
<rect fill="white" width="20" height="27"/>
<path fill-rule="evenodd" clip-rule="evenodd" d="M8.86382 1H1.99998C1.44771 1 1 1.52467 1 2.17188V25.6094C1 26.2566 1.44771 26.7812 1.99998 26.7812H7.49995V26.7847H17.9997C18.2649 26.7847 18.5193 26.6612 18.7068 26.4414C18.8943 26.2217 18.9997 25.9236 18.9997 25.6128V17.8339C18.9996 17.5598 18.9175 17.2944 18.7677 17.0839L16.7317 14.2198C16.5819 14.0093 16.4999 13.7439 16.4997 13.4698V4.78705H17.6352C18.1451 4.78705 18.5585 4.30262 18.5585 3.70504V2.08201C18.5585 1.48443 18.1451 1 17.6352 1H10.9998H8.86382Z"/>
</mask>
<path fill-rule="evenodd" clip-rule="evenodd" d="M8.86382 1H1.99998C1.44771 1 1 1.52467 1 2.17188V25.6094C1 26.2566 1.44771 26.7812 1.99998 26.7812H7.49995V26.7847H17.9997C18.2649 26.7847 18.5193 26.6612 18.7068 26.4414C18.8943 26.2217 18.9997 25.9236 18.9997 25.6128V17.8339C18.9996 17.5598 18.9175 17.2944 18.7677 17.0839L16.7317 14.2198C16.5819 14.0093 16.4999 13.7439 16.4997 13.4698V4.78705H17.6352C18.1451 4.78705 18.5585 4.30262 18.5585 3.70504V2.08201C18.5585 1.48443 18.1451 1 17.6352 1H10.9998H8.86382Z" fill="#C6E8FF"/>
<path d="M7.49995 26.7812H7.69995V26.5812H7.49995V26.7812ZM7.49995 26.7847H7.29995V26.9847H7.49995V26.7847ZM18.9997 17.8339L19.1997 17.8339L19.1997 17.8338L18.9997 17.8339ZM18.7677 17.0839L18.6047 17.1998L18.6047 17.1998L18.7677 17.0839ZM16.7317 14.2198L16.8948 14.1039L16.8947 14.1039L16.7317 14.2198ZM16.4997 13.4698L16.2997 13.4698L16.2997 13.4699L16.4997 13.4698ZM16.4997 4.78705V4.58705H16.2997V4.78705H16.4997ZM1.99998 1.2H8.86382V0.8H1.99998V1.2ZM1.2 2.17188C1.2 1.60419 1.58674 1.2 1.99998 1.2V0.8C1.30867 0.8 0.8 1.44514 0.8 2.17188H1.2ZM1.2 25.6094V2.17188H0.8V25.6094H1.2ZM1.99998 26.5812C1.58674 26.5812 1.2 26.1771 1.2 25.6094H0.8C0.8 26.3361 1.30867 26.9813 1.99998 26.9813V26.5812ZM7.49995 26.5812H1.99998V26.9813H7.49995V26.5812ZM7.69995 26.7847V26.7812H7.29995V26.7847H7.69995ZM17.9997 26.5847H7.49995V26.9847H17.9997V26.5847ZM18.5547 26.3116C18.4013 26.4913 18.2007 26.5847 17.9997 26.5847V26.9847C18.3291 26.9847 18.6373 26.8311 18.8589 26.5713L18.5547 26.3116ZM18.7997 25.6128C18.7997 25.8799 18.7089 26.1309 18.5547 26.3116L18.8589 26.5713C19.0798 26.3124 19.1997 25.9673 19.1997 25.6128H18.7997ZM18.7997 17.8339V25.6128H19.1997V17.8339H18.7997ZM18.6047 17.1998C18.729 17.3744 18.7996 17.5987 18.7997 17.834L19.1997 17.8338C19.1996 17.5208 19.106 17.2144 18.9307 16.9679L18.6047 17.1998ZM16.5687 14.3357L18.6047 17.1998L18.9307 16.968L16.8948 14.1039L16.5687 14.3357ZM16.2997 13.4699C16.2999 13.7829 16.3934 14.0893 16.5688 14.3358L16.8947 14.1039C16.7705 13.9293 16.6998 13.705 16.6997 13.4697L16.2997 13.4699ZM16.2997 4.78705V13.4698H16.6997V4.78705H16.2997ZM16.4997 4.98705H17.6352V4.58705H16.4997V4.98705ZM17.6352 4.98705C18.2841 4.98705 18.7585 4.38214 18.7585 3.70504H18.3585C18.3585 4.22309 18.0061 4.58705 17.6352 4.58705V4.98705ZM18.7585 3.70504V2.08201H18.3585V3.70504H18.7585ZM18.7585 2.08201C18.7585 1.40491 18.2841 0.8 17.6352 0.8V1.2C18.0061 1.2 18.3585 1.56396 18.3585 2.08201H18.7585ZM17.6352 0.8H10.9998V1.2H17.6352V0.8ZM10.9998 0.8H8.86382V1.2H10.9998V0.8Z" fill="black" mask="url(#path-1-outside-1_2044_221)"/>
<path d="M10.9998 1H1.99998C1.44771 1 1 1.52467 1 2.17188V25.6094C1 26.2566 1.44771 26.7812 1.99998 26.7812H10.9998C11.5521 26.7812 11.9998 26.2566 11.9998 25.6094V2.17188C11.9998 1.52467 11.5521 1 10.9998 1Z" fill="url(#paint0_linear_2044_221)"/>
<path d="M10.9998 1H1.99998C1.44771 1 1 1.52467 1 2.17188V25.6094C1 26.2566 1.44771 26.7812 1.99998 26.7812H10.9998C11.5521 26.7812 11.9998 26.2566 11.9998 25.6094V2.17188C11.9998 1.52467 11.5521 1 10.9998 1Z" fill="black" fill-opacity="0.5"/>
<path d="M10.9998 1H1.99998C1.44771 1 1 1.52467 1 2.17188V25.6094C1 26.2566 1.44771 26.7812 1.99998 26.7812H10.9998C11.5521 26.7812 11.9998 26.2566 11.9998 25.6094V2.17188C11.9998 1.52467 11.5521 1 10.9998 1Z" fill="black" fill-opacity="0.2"/>
<path d="M10.9998 1H1.99998C1.44771 1 1 1.52467 1 2.17188V25.6094C1 26.2566 1.44771 26.7812 1.99998 26.7812H10.9998C11.5521 26.7812 11.9998 26.2566 11.9998 25.6094V2.17188C11.9998 1.52467 11.5521 1 10.9998 1Z" fill="#F45170"/>
<path d="M8.40041 5.00156H6.00047C5.70315 5.00156 5.42192 5.1401 5.21731 5.37989C5.01311 5.61918 4.90049 5.94079 4.90049 6.27344L4.90049 13.4664L4.90049 13.4664C4.9006 13.76 4.9884 14.0459 5.15098 14.2743C5.15099 14.2744 5.151 14.2744 5.15101 14.2744L7.18693 17.1384L7.18696 17.1384C7.32396 17.331 7.40033 17.5758 7.40043 17.8305C7.40043 17.8305 7.40043 17.8305 7.40043 17.8305V26.7812V26.8812H7.50043H18.0002C18.2975 26.8812 18.5788 26.7427 18.7834 26.5029C18.9876 26.2636 19.1002 25.942 19.1002 25.6094V17.8305V17.8304C19.1001 17.5369 19.0123 17.251 18.8497 17.0225L16.8137 14.1585L16.8137 14.1584C16.6767 13.9659 16.6003 13.7211 16.6002 13.4664C16.6002 13.4664 16.6002 13.4664 16.6002 13.4664V3.92969V3.82969H16.5002H8.50041H8.40041V3.92969V5.00156Z" fill="#088DE3"/>
<path d="M8.40041 5.00156H6.00047C5.70315 5.00156 5.42192 5.1401 5.21731 5.37989C5.01311 5.61918 4.90049 5.94079 4.90049 6.27344L4.90049 13.4664L4.90049 13.4664C4.9006 13.76 4.9884 14.0459 5.15098 14.2743C5.15099 14.2744 5.151 14.2744 5.15101 14.2744L7.18693 17.1384L7.18696 17.1384C7.32396 17.331 7.40033 17.5758 7.40043 17.8305C7.40043 17.8305 7.40043 17.8305 7.40043 17.8305V26.7812V26.8812H7.50043H18.0002C18.2975 26.8812 18.5788 26.7427 18.7834 26.5029C18.9876 26.2636 19.1002 25.942 19.1002 25.6094V17.8305V17.8304C19.1001 17.5369 19.0123 17.251 18.8497 17.0225L16.8137 14.1585L16.8137 14.1584C16.6767 13.9659 16.6003 13.7211 16.6002 13.4664C16.6002 13.4664 16.6002 13.4664 16.6002 13.4664V3.92969V3.82969H16.5002H8.50041H8.40041V3.92969V5.00156Z" fill="#FFD06C"/>
<path d="M8.40041 5.00156H6.00047C5.70315 5.00156 5.42192 5.1401 5.21731 5.37989C5.01311 5.61918 4.90049 5.94079 4.90049 6.27344L4.90049 13.4664L4.90049 13.4664C4.9006 13.76 4.9884 14.0459 5.15098 14.2743C5.15099 14.2744 5.151 14.2744 5.15101 14.2744L7.18693 17.1384L7.18696 17.1384C7.32396 17.331 7.40033 17.5758 7.40043 17.8305C7.40043 17.8305 7.40043 17.8305 7.40043 17.8305V26.7812V26.8812H7.50043H18.0002C18.2975 26.8812 18.5788 26.7427 18.7834 26.5029C18.9876 26.2636 19.1002 25.942 19.1002 25.6094V17.8305V17.8304C19.1001 17.5369 19.0123 17.251 18.8497 17.0225L16.8137 14.1585L16.8137 14.1584C16.6767 13.9659 16.6003 13.7211 16.6002 13.4664C16.6002 13.4664 16.6002 13.4664 16.6002 13.4664V3.92969V3.82969H16.5002H8.50041H8.40041V3.92969V5.00156Z" stroke="black" stroke-width="0.2"/>
<path d="M5.1497 14.2741L5.1497 14.2741C5.07473 14.1682 5.01543 14.0491 4.9738 13.9217C4.96384 13.8912 4.96908 13.8579 4.98789 13.8319C5.0067 13.806 5.03681 13.7906 5.06885 13.7906H16.5686C16.6119 13.7906 16.6502 13.8184 16.6636 13.8596C16.6993 13.9686 16.7497 14.0695 16.8126 14.1585L5.1497 14.2741ZM5.1497 14.2741L5.14984 14.2743L7.18566 17.1382C7.18566 17.1382 7.18567 17.1382 7.18568 17.1383C7.24861 17.2272 7.29907 17.3282 7.33475 17.4373C7.34819 17.4784 7.38654 17.5062 7.4298 17.5062H18.9295C18.9616 17.5062 18.9917 17.4909 19.0105 17.465C19.0293 17.439 19.0346 17.4056 19.0246 17.3752C18.983 17.2478 18.9237 17.1287 18.8487 17.0227L18.8486 17.0225L16.8127 14.1587L5.1497 14.2741ZM18.8239 17.4062H7.4298H18.8239ZM18.8239 17.4062C18.8275 17.4165 18.8311 17.4269 18.8345 17.4373L18.9295 17.4062M18.8239 17.4062H18.9295M18.9295 17.4062V17.3062H18.8922L18.9295 17.4062Z" fill="#6E85AE" stroke="black" stroke-width="0.2" stroke-linejoin="round"/>
<path d="M18.0435 0.9H8.95652C8.35709 0.9 7.9 1.47386 7.9 2.14286V3.85714C7.9 4.52614 8.35709 5.1 8.95652 5.1H18.0435C18.6429 5.1 19.1 4.52614 19.1 3.85714V2.14286C19.1 1.47386 18.6429 0.9 18.0435 0.9Z" fill="#DF3260" stroke="black" stroke-width="0.2"/>
<path d="M17.4706 2H9.52941C9.23703 2 9 2.29848 9 2.66667V3.33333C9 3.70152 9.23703 4 9.52941 4H17.4706C17.763 4 18 3.70152 18 3.33333V2.66667C18 2.29848 17.763 2 17.4706 2Z" fill="#FFD06C"/>
<path d="M14.9998 6.27344H6.49999C6.22385 6.27344 6 6.53577 6 6.85938V12.1328C6 12.4564 6.22385 12.7188 6.49999 12.7188H14.9998C15.2759 12.7188 15.4998 12.4564 15.4998 12.1328V6.85938C15.4998 6.53577 15.2759 6.27344 14.9998 6.27344Z" fill="white"/>
<path d="M10.0002 10.9615C9.86757 10.9615 9.74041 10.8998 9.64667 10.7899L8.1467 9.03206C8.05562 8.92155 8.00523 8.77354 8.00637 8.61991C8.00751 8.46628 8.06009 8.31932 8.15279 8.21068C8.24549 8.10204 8.3709 8.04042 8.50199 8.03908C8.63309 8.03775 8.75939 8.09681 8.85369 8.20354L10.3537 9.96135C10.4236 10.0433 10.4712 10.1477 10.4904 10.2613C10.5097 10.375 10.4998 10.4928 10.462 10.5998C10.4242 10.7069 10.3601 10.7984 10.2779 10.8628C10.1957 10.9271 10.099 10.9615 10.0002 10.9615ZM13.5001 11.5475C13.3675 11.5475 13.2403 11.4857 13.1466 11.3758L10.6466 8.44612C10.5556 8.33561 10.5052 8.1876 10.5063 8.03397C10.5075 7.88034 10.56 7.73338 10.6527 7.62474C10.7454 7.5161 10.8708 7.45448 11.0019 7.45315C11.133 7.45181 11.2593 7.51087 11.3536 7.6176L13.8536 10.5473C13.9235 10.6292 13.9711 10.7336 13.9904 10.8473C14.0096 10.9609 13.9997 11.0787 13.9619 11.1858C13.9241 11.2928 13.86 11.3843 13.7778 11.4487C13.6956 11.5131 13.599 11.5475 13.5001 11.5475Z" fill="#D9E1E2"/>
<path d="M8.9995 16.2422C8.8669 16.2422 8.73972 16.1805 8.64595 16.0706C8.55219 15.9607 8.49951 15.8116 8.49951 15.6562V13.3125C8.49951 13.1571 8.55219 13.0081 8.64595 12.8982C8.73972 12.7883 8.8669 12.7266 8.9995 12.7266C9.13211 12.7266 9.25928 12.7883 9.35305 12.8982C9.44681 13.0081 9.49949 13.1571 9.49949 13.3125V15.6562C9.49949 15.8116 9.44681 15.9607 9.35305 16.0706C9.25928 16.1805 9.13211 16.2422 8.9995 16.2422Z" fill="#34495E"/>
<path d="M8.9995 12.7266C8.8669 12.7266 8.73972 12.7883 8.64595 12.8982C8.55219 13.0081 8.49951 13.1571 8.49951 13.3125V15.6562C8.49951 15.8116 8.55219 15.9607 8.64595 16.0706C8.73972 16.1805 8.8669 16.2422 8.9995 16.2422V12.7266Z" fill="#2C3E50"/>
<path d="M8.99998 13.8906C9.55225 13.8906 9.99996 13.366 9.99996 12.7188C9.99996 12.0715 9.55225 11.5469 8.99998 11.5469C8.44771 11.5469 8 12.0715 8 12.7188C8 13.366 8.44771 13.8906 8.99998 13.8906Z" fill="#E74C3C"/>
<path d="M9.49983 13.3086C9.33266 13.3094 9.16801 13.2609 9.02104 13.1675C8.87408 13.0742 8.74953 12.9389 8.65888 12.7743C8.56823 12.6097 8.51439 12.421 8.50233 12.2256C8.49026 12.0302 8.52036 11.8344 8.58985 11.6562C8.44157 11.7335 8.31155 11.8519 8.21103 12.0012C8.11051 12.1505 8.04251 12.3262 8.01289 12.5132C7.98327 12.7002 7.99293 12.8928 8.04103 13.0744C8.08913 13.2561 8.17423 13.4212 8.28898 13.5557C8.40373 13.6902 8.54468 13.7899 8.69967 13.8463C8.85466 13.9027 9.01902 13.914 9.17858 13.8793C9.33813 13.8446 9.48808 13.7649 9.61548 13.6471C9.74288 13.5293 9.8439 13.3769 9.90982 13.2031C9.78111 13.272 9.64134 13.308 9.49983 13.3086Z" fill="#C0392B"/>
<path d="M15 16.2344C15.2761 16.2344 15.5 15.972 15.5 15.6484C15.5 15.3248 15.2761 15.0625 15 15.0625C14.7239 15.0625 14.5 15.3248 14.5 15.6484C14.5 15.972 14.7239 16.2344 15 16.2344Z" fill="#F1C40F"/>
<path d="M13 16.2344C13.2761 16.2344 13.5 15.972 13.5 15.6484C13.5 15.3248 13.2761 15.0625 13 15.0625C12.7239 15.0625 12.5 15.3248 12.5 15.6484C12.5 15.972 12.7239 16.2344 13 16.2344Z" fill="#F1C40F"/>
<path d="M17.4993 18.5781H8.9995C8.72336 18.5781 8.49951 18.8405 8.49951 19.1641V25.0234C8.49951 25.347 8.72336 25.6094 8.9995 25.6094H17.4993C17.7755 25.6094 17.9993 25.347 17.9993 25.0234V19.1641C17.9993 18.8405 17.7755 18.5781 17.4993 18.5781Z" fill="white"/>
<path d="M11 19.7578H9.99999C9.72385 19.7578 9.5 20.0201 9.5 20.3437V22.6875C9.5 23.0111 9.72385 23.2734 9.99999 23.2734H11C11.2761 23.2734 11.5 23.0111 11.5 22.6875V20.3437C11.5 20.0201 11.2761 19.7578 11 19.7578Z" fill="black"/>
<path d="M10.5 21.5078C10.7761 21.5078 11 21.2455 11 20.9219C11 20.5983 10.7761 20.3359 10.5 20.3359C10.2239 20.3359 10 20.5983 10 20.9219C10 21.2455 10.2239 21.5078 10.5 21.5078Z" fill="#C6E8FF"/>
<defs>
<linearGradient id="paint0_linear_2044_221" x1="6.49988" y1="1" x2="6.49988" y2="26.7812" gradientUnits="userSpaceOnUse">
<stop stop-color="#80CDFF"/>
<stop offset="1" stop-color="#1AA5FF"/>
</linearGradient>
</defs>
</svg>
